<?xml version="1.0" encoding="UTF-8"?>
<svg width="160px" height="160px" viewBox="0 0 160 160" version="1.1" xmlns="http://www.w3.org/2000/svg" xmlns:xlink="http://www.w3.org/1999/xlink">
    <!-- Generator: Sketch 55.1 (78136) - https://sketchapp.com -->
    <title>Group 54</title>
    <desc>Created with Sketch.</desc>
    <defs>
        <polygon id="path-1" points="0 160 160 160 160 0 0 0"></polygon>
    </defs>
    <g id="Page-1" stroke="none" stroke-width="1" fill="none" fill-rule="evenodd">
        <g id="001---Landing-Page" transform="translate(-394.000000, -1889.000000)">
            <g id="Group-20" transform="translate(259.000000, 1886.000000)">
                <g id="Group-19" transform="translate(0.000000, 3.000000)">
                    <g id="Group-54" transform="translate(135.000000, 0.000000)">
                        <path d="M16.3636364,10.6493061 L16.3636364,37.2727273 L21.7043368,37.2727273 L21.7043368,10.6493061 C21.7043368,7.70813453 24.0952282,5.32480904 27.0453502,5.32480904 L133.863741,5.32480904 C136.813863,5.32480904 139.204441,7.70813453 139.204441,10.6493061 L144.545455,10.6493061 C144.545455,4.76821096 139.76242,0 133.863741,0 L27.0453502,0 C21.1463579,0 16.3636364,4.76821096 16.3636364,10.6493061" id="Fill-1" fill="#26A9E7"></path>
                        <path d="M16.3636364,10.6493061 L16.3636364,37.2727273 L21.7043368,37.2727273 L21.7043368,10.6493061 C21.7043368,7.70813453 24.0952282,5.32480904 27.0453502,5.32480904 L133.863741,5.32480904 C136.813863,5.32480904 139.204441,7.70813453 139.204441,10.6493061 L144.545455,10.6493061 C144.545455,4.76821096 139.76242,0 133.863741,0 L27.0453502,0 C21.1463579,0 16.3636364,4.76821096 16.3636364,10.6493061 Z" id="Stroke-3"></path>
                        <path d="M5.31996922,144.025952 L122.356798,144.025952 L122.356798,149.350426 C122.355552,151.221449 122.846496,153.057841 123.785993,154.675525 L10.6396267,154.675525 C7.70112847,154.675525 5.31996922,152.291898 5.31996922,149.350426 L5.31996922,144.025952 Z M10.6396267,160 L132.996737,160 C138.872487,160 143.636364,155.231809 143.636364,149.350426 L143.636364,138.701477 L138.316706,138.701477 L138.316706,149.350426 C138.316706,152.291898 135.935235,154.675525 132.996737,154.675525 C130.057927,154.675525 127.676768,152.291898 127.676768,149.350426 L127.676768,141.363714 C127.676768,139.892667 126.486344,138.701477 125.016939,138.701477 L21.2795652,138.701477 L21.2795652,85.4545455 L15.959596,85.4545455 L15.959596,138.701477 L2.65982876,138.701477 C1.19042377,138.701477 0,139.892667 0,141.363714 L0,149.350426 C0,155.231809 4.76387705,160 10.6396267,160 L10.6396267,160 Z" id="Fill-5" fill="#26A9E7"></path>
                        <path d="M5.31996922,144.025952 L122.356798,144.025952 L122.356798,149.350426 C122.355552,151.221449 122.846496,153.057841 123.785993,154.675525 L10.6396267,154.675525 C7.70112847,154.675525 5.31996922,152.291898 5.31996922,149.350426 L5.31996922,144.025952 Z M10.6396267,160 L132.996737,160 C138.872487,160 143.636364,155.231809 143.636364,149.350426 L143.636364,138.701477 L138.316706,138.701477 L138.316706,149.350426 C138.316706,152.291898 135.935235,154.675525 132.996737,154.675525 C130.057927,154.675525 127.676768,152.291898 127.676768,149.350426 L127.676768,141.363714 C127.676768,139.892667 126.486344,138.701477 125.016939,138.701477 L21.2795652,138.701477 L21.2795652,85.4545455 L15.959596,85.4545455 L15.959596,138.701477 L2.65982876,138.701477 C1.19042377,138.701477 0,139.892667 0,141.363714 L0,149.350426 C0,155.231809 4.76387705,160 10.6396267,160 Z" id="Stroke-7"></path>
                        <mask id="mask-2" fill="white">
                            <use xlink:href="#path-1"></use>
                        </mask>
                        <g id="Clip-10"></g>
                        <path d="M5.2893689,74.6752355 L52.8927592,74.6752355 L52.8927592,48.0520372 L5.2893689,48.0520372 L5.2893689,74.6752355 Z M2.64452949,80 L55.5372887,80 C56.9985516,80 58.1818182,78.8085032 58.1818182,77.3377738 L58.1818182,45.389811 C58.1818182,43.9187695 56.9985516,42.7272727 55.5372887,42.7272727 L2.64452949,42.7272727 C1.18357648,42.7272727 0,43.9187695 0,45.389811 L0,77.3377738 C0,78.8085032 1.18357648,80 2.64452949,80 L2.64452949,80 Z" id="Fill-9" fill="#26A9E7" mask="url(#mask-2)"></path>
                        <path d="M5.2893689,74.6752355 L52.8927592,74.6752355 L52.8927592,48.0520372 L5.2893689,48.0520372 L5.2893689,74.6752355 Z M2.64452949,80 L55.5372887,80 C56.9985516,80 58.1818182,78.8085032 58.1818182,77.3377738 L58.1818182,45.389811 C58.1818182,43.9187695 56.9985516,42.7272727 55.5372887,42.7272727 L2.64452949,42.7272727 C1.18357648,42.7272727 0,43.9187695 0,45.389811 L0,77.3377738 C0,78.8085032 1.18357648,80 2.64452949,80 Z" id="Stroke-11" mask="url(#mask-2)"></path>
                        <path d="M17.0942978,54.5454545 L11.6987019,59.9185736 C10.6458873,60.9685767 10.6458873,62.667787 11.6987019,63.71779 L17.0942978,69.0909091 L20.9090909,65.2920075 L17.4208916,61.8183392 L20.9090909,58.3443561 L17.0942978,54.5454545 Z" id="Fill-12" fill="#26A9E7" mask="url(#mask-2)"></path>
                        <path d="M17.0942978,54.5454545 L11.6987019,59.9185736 C10.6458873,60.9685767 10.6458873,62.667787 11.6987019,63.71779 L17.0942978,69.0909091 L20.9090909,65.2920075 L17.4208916,61.8183392 L20.9090909,58.3443561 L17.0942978,54.5454545 Z" id="Stroke-13" mask="url(#mask-2)"></path>
                        <path d="M41.9966113,54.5454545 L38.1818182,58.3443561 L41.6700175,61.8183392 L38.1818182,65.2920075 L41.9966113,69.0909091 L47.3922072,63.71779 C48.4450218,62.667787 48.4450218,60.9685767 47.3922072,59.9185736 L41.9966113,54.5454545 Z" id="Fill-14" fill="#26A9E7" mask="url(#mask-2)"></path>
                        <path d="M41.9966113,54.5454545 L38.1818182,58.3443561 L41.6700175,61.8183392 L38.1818182,65.2920075 L41.9966113,69.0909091 L47.3922072,63.71779 C48.4450218,62.667787 48.4450218,60.9685767 47.3922072,59.9185736 L41.9966113,54.5454545 Z" id="Stroke-15" mask="url(#mask-2)"></path>
                        <polygon id="Fill-16" fill="#26A9E7" mask="url(#mask-2)" points="24.5454545 68.3531039 29.6775516 52.7272727 34.5454545 54.3756946 29.4106525 70"></polygon>
                        <polygon id="Stroke-17" mask="url(#mask-2)" points="24.5454545 68.3531039 29.6775516 52.7272727 34.5454545 54.3756946 29.4106525 70"></polygon>
                        <path d="M154.697177,56.7657742 L140.113636,48.4485074 C139.333097,48.0012958 138.377619,47.9836305 137.578125,48.3955114 L118.469505,58.2685661 L95.1623757,43.2328989 C94.3128551,42.6855839 93.2243874,42.6679186 92.3565341,43.1879609 L69.8485884,56.6520343 L69.8485884,21.6530053 L154.697177,21.6530053 L154.697177,56.7657742 Z M154.697177,69.2563956 L69.8485884,69.2563956 L69.8485884,62.8194007 L93.6594016,48.5699952 L116.872692,63.5439887 C117.670011,64.056283 118.682351,64.1058699 119.524103,63.6707452 L138.720348,53.7533722 L154.697177,62.8562809 L154.697177,69.2563956 Z M157.348588,16.3636364 L67.1971768,16.3636364 C65.7321112,16.3636364 64.5454545,17.5472128 64.5454545,19.0081659 L64.5454545,71.9009251 C64.5454545,73.362188 65.7321112,74.5454545 67.1971768,74.5454545 L157.348588,74.5454545 C158.813654,74.5454545 160,73.362188 160,71.9009251 L160,19.0081659 C160,17.5472128 158.813654,16.3636364 157.348588,16.3636364 L157.348588,16.3636364 Z" id="Fill-18" fill="#26A9E7" mask="url(#mask-2)"></path>
                        <path d="M154.697177,56.7657742 L140.113636,48.4485074 C139.333097,48.0012958 138.377619,47.9836305 137.578125,48.3955114 L118.469505,58.2685661 L95.1623757,43.2328989 C94.3128551,42.6855839 93.2243874,42.6679186 92.3565341,43.1879609 L69.8485884,56.6520343 L69.8485884,21.6530053 L154.697177,21.6530053 L154.697177,56.7657742 Z M154.697177,69.2563956 L69.8485884,69.2563956 L69.8485884,62.8194007 L93.6594016,48.5699952 L116.872692,63.5439887 C117.670011,64.056283 118.682351,64.1058699 119.524103,63.6707452 L138.720348,53.7533722 L154.697177,62.8562809 L154.697177,69.2563956 Z M157.348588,16.3636364 L67.1971768,16.3636364 C65.7321112,16.3636364 64.5454545,17.5472128 64.5454545,19.0081659 L64.5454545,71.9009251 C64.5454545,73.362188 65.7321112,74.5454545 67.1971768,74.5454545 L157.348588,74.5454545 C158.813654,74.5454545 160,73.362188 160,71.9009251 L160,19.0081659 C160,17.5472128 158.813654,16.3636364 157.348588,16.3636364 Z" id="Stroke-19" mask="url(#mask-2)"></path>
                        <path d="M126.363484,32.4673585 C128.515485,32.4673585 130.259914,34.2114835 130.259914,36.3634842 C130.259914,38.5154848 128.515485,40.2596098 126.363484,40.2596098 C124.211788,40.2596098 122.467359,38.5154848 122.467359,36.3634842 C122.467359,34.2114835 124.211788,32.4673585 126.363484,32.4673585 M126.363484,45.4545455 C131.384312,45.4545455 135.454545,41.3843117 135.454545,36.3634842 C135.454545,31.3426566 131.384312,27.2727273 126.363484,27.2727273 C121.342961,27.2727273 117.272727,31.3426566 117.272727,36.3634842 C117.272727,41.3843117 121.342961,45.4545455 126.363484,45.4545455" id="Fill-20" fill="#26A9E7" mask="url(#mask-2)"></path>
                        <path d="M126.363484,32.4673585 C128.515485,32.4673585 130.259914,34.2114835 130.259914,36.3634842 C130.259914,38.5154848 128.515485,40.2596098 126.363484,40.2596098 C124.211788,40.2596098 122.467359,38.5154848 122.467359,36.3634842 C122.467359,34.2114835 124.211788,32.4673585 126.363484,32.4673585 Z M126.363484,45.4545455 C131.384312,45.4545455 135.454545,41.3843117 135.454545,36.3634842 C135.454545,31.3426566 131.384312,27.2727273 126.363484,27.2727273 C121.342961,27.2727273 117.272727,31.3426566 117.272727,36.3634842 C117.272727,41.3843117 121.342961,45.4545455 126.363484,45.4545455 Z" id="Stroke-21" mask="url(#mask-2)"></path>
                        <path d="M31.6836056,117.40282 L92.8621607,117.40282 L92.8621607,90.7796219 L31.6836056,90.7796219 L31.6836056,117.40282 Z M26.3636364,88.1170837 L26.3636364,120.065046 C26.3636364,121.536088 27.5540601,122.727273 29.0237768,122.727273 L95.5219894,122.727273 C96.9917061,122.727273 98.1818182,121.536088 98.1818182,120.065046 L98.1818182,88.1170837 C98.1818182,86.6463542 96.9917061,85.4545455 95.5219894,85.4545455 L29.0237768,85.4545455 C27.5540601,85.4545455 26.3636364,86.6463542 26.3636364,88.1170837 L26.3636364,88.1170837 Z" id="Fill-22" fill="#26A9E7" mask="url(#mask-2)"></path>
                        <path d="M31.6836056,117.40282 L92.8621607,117.40282 L92.8621607,90.7796219 L31.6836056,90.7796219 L31.6836056,117.40282 Z M26.3636364,88.1170837 L26.3636364,120.065046 C26.3636364,121.536088 27.5540601,122.727273 29.0237768,122.727273 L95.5219894,122.727273 C96.9917061,122.727273 98.1818182,121.536088 98.1818182,120.065046 L98.1818182,88.1170837 C98.1818182,86.6463542 96.9917061,85.4545455 95.5219894,85.4545455 L29.0237768,85.4545455 C27.5540601,85.4545455 26.3636364,86.6463542 26.3636364,88.1170837 Z" id="Stroke-23" mask="url(#mask-2)"></path>
                        <polygon id="Fill-24" fill="#26A9E7" mask="url(#mask-2)" points="37.2727273 100.909091 48.1818182 100.909091 48.1818182 95.4545455 37.2727273 95.4545455"></polygon>
                        <polygon id="Stroke-25" mask="url(#mask-2)" points="37.2727273 100.909091 48.1818182 100.909091 48.1818182 95.4545455 37.2727273 95.4545455"></polygon>
                        <polygon id="Fill-26" fill="#26A9E7" mask="url(#mask-2)" points="53.6363636 100.909091 77.2727273 100.909091 77.2727273 95.4545455 53.6363636 95.4545455"></polygon>
                        <polygon id="Stroke-27" mask="url(#mask-2)" points="53.6363636 100.909091 77.2727273 100.909091 77.2727273 95.4545455 53.6363636 95.4545455"></polygon>
                        <polygon id="Fill-28" fill="#26A9E7" mask="url(#mask-2)" points="82.7272727 100.909091 88.1818182 100.909091 88.1818182 95.4545455 82.7272727 95.4545455"></polygon>
                        <polygon id="Stroke-29" mask="url(#mask-2)" points="82.7272727 100.909091 88.1818182 100.909091 88.1818182 95.4545455 82.7272727 95.4545455"></polygon>
                        <polygon id="Fill-30" fill="#26A9E7" mask="url(#mask-2)" points="37.2727273 111.818182 69.0909091 111.818182 69.0909091 106.363636 37.2727273 106.363636"></polygon>
                        <polygon id="Stroke-31" mask="url(#mask-2)" points="37.2727273 111.818182 69.0909091 111.818182 69.0909091 106.363636 37.2727273 106.363636"></polygon>
                        <polygon id="Fill-32" fill="#26A9E7" mask="url(#mask-2)" points="74.5454545 111.818182 88.1818182 111.818182 88.1818182 106.363636 74.5454545 106.363636"></polygon>
                        <polygon id="Stroke-33" mask="url(#mask-2)" points="74.5454545 111.818182 88.1818182 111.818182 88.1818182 106.363636 74.5454545 106.363636"></polygon>
                        <polygon id="Fill-34" fill="#26A9E7" mask="url(#mask-2)" points="26.3636364 16.3636364 31.8181818 16.3636364 31.8181818 10.9090909 26.3636364 10.9090909"></polygon>
                        <polygon id="Stroke-35" mask="url(#mask-2)" points="26.3636364 16.3636364 31.8181818 16.3636364 31.8181818 10.9090909 26.3636364 10.9090909"></polygon>
                        <polygon id="Fill-36" fill="#26A9E7" mask="url(#mask-2)" points="37.2727273 16.3636364 42.7272727 16.3636364 42.7272727 10.9090909 37.2727273 10.9090909"></polygon>
                        <polygon id="Stroke-37" mask="url(#mask-2)" points="37.2727273 16.3636364 42.7272727 16.3636364 42.7272727 10.9090909 37.2727273 10.9090909"></polygon>
                        <polygon id="Fill-38" fill="#26A9E7" mask="url(#mask-2)" points="48.1818182 16.3636364 53.6363636 16.3636364 53.6363636 10.9090909 48.1818182 10.9090909"></polygon>
                        <polygon id="Stroke-39" mask="url(#mask-2)" points="48.1818182 16.3636364 53.6363636 16.3636364 53.6363636 10.9090909 48.1818182 10.9090909"></polygon>
                        <polygon id="Fill-40" fill="#26A9E7" mask="url(#mask-2)" points="27.2727273 27.2727273 59.0909091 27.2727273 59.0909091 21.8181818 27.2727273 21.8181818"></polygon>
                        <polygon id="Stroke-41" mask="url(#mask-2)" points="27.2727273 27.2727273 59.0909091 27.2727273 59.0909091 21.8181818 27.2727273 21.8181818"></polygon>
                        <path d="M109.826943,128.311599 L154.718821,128.311599 L154.718821,101.688401 L109.826943,101.688401 L109.826943,128.311599 Z M157.359411,96.3636364 L107.186044,96.3636364 C105.727268,96.3636364 104.545455,97.5551331 104.545455,99.0258626 L104.545455,130.974137 C104.545455,132.444867 105.727268,133.636364 107.186044,133.636364 L157.359411,133.636364 C158.818496,133.636364 160,132.444867 160,130.974137 L160,99.0258626 C160,97.5551331 158.818496,96.3636364 157.359411,96.3636364 L157.359411,96.3636364 Z" id="Fill-42" fill="#26A9E7" mask="url(#mask-2)"></path>
                        <path d="M109.826943,128.311599 L154.718821,128.311599 L154.718821,101.688401 L109.826943,101.688401 L109.826943,128.311599 Z M157.359411,96.3636364 L107.186044,96.3636364 C105.727268,96.3636364 104.545455,97.5551331 104.545455,99.0258626 L104.545455,130.974137 C104.545455,132.444867 105.727268,133.636364 107.186044,133.636364 L157.359411,133.636364 C158.818496,133.636364 160,132.444867 160,130.974137 L160,99.0258626 C160,97.5551331 158.818496,96.3636364 157.359411,96.3636364 Z" id="Stroke-43" mask="url(#mask-2)"></path>
                        <polygon id="Fill-44" fill="#26A9E7" mask="url(#mask-2)" points="114.545455 111.818182 120 111.818182 120 106.363636 114.545455 106.363636"></polygon>
                        <polygon id="Stroke-45" mask="url(#mask-2)" points="114.545455 111.818182 120 111.818182 120 106.363636 114.545455 106.363636"></polygon>
                        <polygon id="Fill-46" fill="#26A9E7" mask="url(#mask-2)" points="114.545455 122.727273 120 122.727273 120 117.272727 114.545455 117.272727"></polygon>
                        <polygon id="Stroke-47" mask="url(#mask-2)" points="114.545455 122.727273 120 122.727273 120 117.272727 114.545455 117.272727"></polygon>
                        <polygon id="Fill-48" fill="#26A9E7" mask="url(#mask-2)" points="125.454545 111.818182 149.090909 111.818182 149.090909 106.363636 125.454545 106.363636"></polygon>
                        <polygon id="Stroke-49" mask="url(#mask-2)" points="125.454545 111.818182 149.090909 111.818182 149.090909 106.363636 125.454545 106.363636"></polygon>
                        <polygon id="Fill-50" fill="#26A9E7" mask="url(#mask-2)" points="125.454545 122.727273 149.090909 122.727273 149.090909 117.272727 125.454545 117.272727"></polygon>
                        <polygon id="Stroke-51" mask="url(#mask-2)" points="125.454545 122.727273 149.090909 122.727273 149.090909 117.272727 125.454545 117.272727"></polygon>
                        <polygon id="Fill-52" fill="#26A9E7" mask="url(#mask-2)" points="138.181818 90.9090909 143.636364 90.9090909 143.636364 80 138.181818 80"></polygon>
                        <polygon id="Stroke-53" mask="url(#mask-2)" points="138.181818 90.9090909 143.636364 90.9090909 143.636364 80 138.181818 80"></polygon>
                    </g>
                </g>
            </g>
        </g>
    </g>
</svg>