<?xml version="1.0" encoding="utf-8"?>
<!-- Generator: Adobe Illustrator 22.1.0, SVG Export Plug-In . SVG Version: 6.00 Build 0)  -->
<svg version="1.1" id="Layer_1" xmlns="http://www.w3.org/2000/svg" xmlns:xlink="http://www.w3.org/1999/xlink" x="0px" y="0px"
	 viewBox="0 0 512 512" style="enable-background:new 0 0 512 512;" xml:space="preserve">
<style type="text/css">
	.st0{fill:#A99B6D;}
</style>
<path class="st0" d="M510,64c0-16.5-13.5-30-30-30h-87.3V10.7c0-4.8-3.9-8.7-8.7-8.7H128c-4.8,0-8.7,3.9-8.7,8.7V34H32
	C15.5,34,2,47.5,2,64v309.3c0,16.5,13.5,30,30,30h151.3v47.9l-1.3,0.5c-11.9,4.2-20,15.6-20,28.3v12.7h-21.3V510h230.7v-17.3H350
	V480c0-12.7-8-24.1-20-28.3l-1.3-0.5v-47.9H480c16.5,0,30-13.5,30-30V64z M392.7,286h32v-17.3h-32v-57.3h32V194h-32v-57.3h32v-17.3
	h-32V94H450v217.3h-57.3V286z M136.8,21.3h1.9v-2h236.7v204.6l-91.6-101.8c-1.6-2-4.1-3-6.5-2.8c-2.6,0.1-5,1.2-6.6,3.1L227,174.9
	l-17.6-20.6c-1.6-1.8-4-2.8-6.6-2.8c-2.5,0-4.8,1-6.6,2.8l-59.4,69.3V21.3z M238.4,188.3l39.3-47.1l76.2,84.8h-83.2L238.4,188.3z
	 M247.8,226h-90.3l45.1-52.7L247.8,226z M136.7,243.3h238.7v68H136.7V243.3z M19.3,64c0-7,5.7-12.7,12.7-12.7h87.3v76L92.9,81.1
	c-1.6-2.9-4.7-4.6-8.1-4.4c-3.2,0.2-6.2,2.2-7.5,5.2l-32,74.7c-0.5,1.1-0.7,2.2-0.7,3.4v151.3H19.3V64z M119.3,168.7v142.7H62V168.7
	H119.3z M66.5,151.3l20-46.6l26.6,46.6H66.5z M332.7,480v12.7H179.3V480c0-7,5.7-12.7,12.7-12.7h128C327,467.3,332.7,473,332.7,480z
	 M200.7,450v-46.7h110.7V450H200.7z M492.7,373.3c0,7-5.7,12.7-12.7,12.7H32c-7,0-12.7-5.7-12.7-12.7v-44.7h473.4V373.3z
	 M492.7,311.3h-25.3v-226c0-4.8-3.9-8.7-8.7-8.7h-66V51.3H480c7,0,12.7,5.7,12.7,12.7V311.3z"/>
<path class="st0" d="M320,44.7c-16.5,0-30,13.5-30,30s13.5,30,30,30s30-13.5,30-30S336.5,44.7,320,44.7z M320,87.4
	c-7,0-12.7-5.7-12.7-12.7c0-7,5.7-12.7,12.7-12.7s12.7,5.7,12.7,12.7C332.7,81.7,327,87.4,320,87.4z"/>
<rect x="162" y="268.7" class="st0" width="17.3" height="17.3"/>
<rect x="204.7" y="268.7" class="st0" width="145.3" height="17.3"/>
</svg>
