<?xml version="1.0" encoding="utf-8"?>
<!-- Generator: Adobe Illustrator 22.1.0, SVG Export Plug-In . SVG Version: 6.00 Build 0)  -->
<svg version="1.1" id="Layer_1" xmlns="http://www.w3.org/2000/svg" xmlns:xlink="http://www.w3.org/1999/xlink" x="0px" y="0px"
	 viewBox="0 0 512 512" style="enable-background:new 0 0 512 512;" xml:space="preserve">
<style type="text/css">
	.st0{fill:#A99B6D;}
</style>
<g>
	<path class="st0" d="M182.3,227.8c-2.3-3.9-7.3-5.1-11.2-2.8l-95.2,56.7c-2.5,1.5-4,4.1-4,7c0,2.9,1.5,5.5,4,7l95.2,56.7
		c1.3,0.8,2.8,1.2,4.2,1.2c2.8,0,5.5-1.4,7-4c2.3-3.9,1-8.9-2.8-11.2L96,288.7l83.4-49.7C183.3,236.7,184.6,231.7,182.3,227.8
		L182.3,227.8z"/>
	<path class="st0" d="M329.7,349.6c1.5,2.6,4.2,4,7,4c1.4,0,2.9-0.4,4.2-1.2l95.2-56.7c2.5-1.5,4-4.1,4-7c0-2.9-1.5-5.5-4-7
		L340.9,225c-3.9-2.3-8.9-1-11.2,2.8c-2.3,3.9-1,8.9,2.8,11.2l83.4,49.7l-83.4,49.7C328.7,340.7,327.4,345.7,329.7,349.6z"/>
	<path class="st0" d="M287.3,227.4l-76.1,113.4c-2.5,3.7-1.5,8.8,2.2,11.3c1.4,0.9,3,1.4,4.5,1.4c2.6,0,5.2-1.3,6.8-3.6l76.1-113.4
		c2.5-3.7,1.5-8.8-2.2-11.3C294.9,222.7,289.8,223.7,287.3,227.4L287.3,227.4z"/>
	<path class="st0" d="M503.8,24.5H8.2c-4.5,0-8.2,3.7-8.2,8.2v446.6c0,4.5,3.7,8.2,8.2,8.2h495.7c4.5,0,8.2-3.7,8.2-8.2v-87.1
		c0-4.5-3.7-8.2-8.2-8.2c-4.5,0-8.2,3.7-8.2,8.2v79H16.3V106.2h479.3v253.3c0,4.5,3.7,8.2,8.2,8.2c4.5,0,8.2-3.7,8.2-8.2V32.7
		C512,28.2,508.3,24.5,503.8,24.5z M16.3,40.9h302.3v49H16.3V40.9z M335,89.9v-49h160.7v49H335z"/>
	<path class="st0" d="M415.6,56.6c-4.8,0-8.7,3.9-8.7,8.7c0,4.8,3.9,8.7,8.7,8.7s8.7-3.9,8.7-8.7S420.4,56.6,415.6,56.6z"/>
	<path class="st0" d="M370.9,56.6c-4.8,0-8.7,3.9-8.7,8.7c0,4.8,3.9,8.7,8.7,8.7c4.8,0,8.7-3.9,8.7-8.7S375.7,56.6,370.9,56.6z"/>
	<path class="st0" d="M460.3,56.6c-4.8,0-8.7,3.9-8.7,8.7c0,4.8,3.9,8.7,8.7,8.7c4.8,0,8.7-3.9,8.7-8.7S465.1,56.6,460.3,56.6z"/>
</g>
</svg>
